<svg id="Girl" xmlns="http://www.w3.org/2000/svg" viewBox="0 0 2675.95 2896.97"><defs><style>.cls-1{fill:#e28e42;}.cls-2{fill:#390075;}.cls-3{opacity:0.3;}.cls-4{fill:#af5a1b;}.cls-5{fill:#fbae17;}.cls-6{fill:#fcc5a9;}.cls-7{fill:#c7b299;}.cls-8{fill:#29abe2;}.cls-9{fill:#fff;}.cls-10{fill:#4d4d4d;}.cls-11{fill:#f2f2f2;}.cls-12{fill:#e5892c;}.cls-13{fill:#534741;}.cls-14{fill:#b4e9fc;}.cls-15{fill:#5a53ea;}.cls-16{opacity:0.4;}.cls-17{fill:#ed1e79;}.cls-18{fill:#d3d3d3;}.cls-19{opacity:0.51;}.cls-20{fill:#fc7a7a;}</style></defs><g id="Layer_369" data-name="Layer 369"><g id="Layer_248" data-name="Layer 248"><g id="Layer_127" data-name="Layer 127"><path class="cls-1" d="M2355.83,2631.55,2420.94,3081l-56-8.92-115.78-376.58S2325.75,2665.9,2355.83,2631.55Z" transform="translate(-663.18 -638.96)"/></g></g></g><g id="Layer_368" data-name="Layer 368"><g id="Layer_247" data-name="Layer 247"><g id="Layer_126" data-name="Layer 126"><path class="cls-2" d="M2364.91,3100.46a16.19,16.19,0,0,1-15.52-11.59L2233.6,2700.13a16.2,16.2,0,1,1,31.05-9.25l112.14,376.45,25.69-1.48-59.86-431.62a16.2,16.2,0,1,1,32.1-4.46l62.27,449a16.2,16.2,0,0,1-15.12,18.4l-56,3.24C2365.54,3100.45,2365.22,3100.46,2364.91,3100.46Z" transform="translate(-663.18 -638.96)"/></g></g></g><g id="Layer_367" data-name="Layer 367"><g id="Layer_246" data-name="Layer 246"><g id="Layer_125" data-name="Layer 125"><path class="cls-1" d="M1818,2631.55,1752.9,3081l56-8.92,115.79-376.58S1848.09,2665.9,1818,2631.55Z" transform="translate(-663.18 -638.96)"/></g></g></g><g id="Layer_366" data-name="Layer 366"><g id="Layer_245" data-name="Layer 245"><g id="Layer_124" data-name="Layer 124"><g class="cls-3"><path class="cls-2" d="M2355.83,2631.55,2420.94,3081l-56-8.92-115.78-376.58S2325.75,2665.9,2355.83,2631.55Z" transform="translate(-663.18 -638.96)"/></g></g></g></g><g id="Layer_365" data-name="Layer 365"><g id="Layer_244" data-name="Layer 244"><g id="Layer_123" data-name="Layer 123"><g class="cls-3"><path class="cls-2" d="M1818,2631.55,1752.9,3081l56-8.92,115.79-376.58S1848.09,2665.9,1818,2631.55Z" transform="translate(-663.18 -638.96)"/></g></g></g></g><g id="Layer_364" data-name="Layer 364"><g id="Layer_243" data-name="Layer 243"><g id="Layer_122" data-name="Layer 122"><path class="cls-2" d="M1808.94,3100.46c-.32,0-.63,0-.94,0l-56-3.24a16.2,16.2,0,0,1-15.12-18.4l62.28-449a16.2,16.2,0,1,1,32.1,4.46l-59.87,431.62,25.7,1.48,112.12-376.45a16.21,16.21,0,0,1,31.07,9.25l-115.79,388.74A16.21,16.21,0,0,1,1808.94,3100.46Z" transform="translate(-663.18 -638.96)"/></g></g></g><g id="Layer_363" data-name="Layer 363"><g id="Layer_242" data-name="Layer 242"><g id="Layer_121" data-name="Layer 121"><path class="cls-4" d="M1502.83,2386.59c-63.3-27-101.17-103.12-84.58-169.93,10.33-41.62,39-81.36,30.09-123.3-6.35-29.74-30.38-52.12-44.45-79.09-30.23-58-10.33-131.43,29.45-183.3,31.34-40.87,77.15-82.56,67.23-133.1-7.72-39.29-47.94-65.95-55.86-105.2-8.76-43.37,24.32-83.39,33.15-126.74,20.77-102-74-156.28-48.07-257.06,9.25-35.9-22.08-71,25.16-142.57,23.24-35.2-.92-85.81,14.23-125.18,27.73-72,125.37-86,176.51-143.85,16.7-18.88,28.24-42.35,47.47-58.63,40.59-34.38,101.12-26.87,151.63-43.57,35.88-11.86,68-36.52,105.66-39.58,38.83-3.16,75.6,17.29,114.3,21.68,46.17,5.23,92.11-12.61,138.57-11.45,68.91,1.71,142.9,41.12,165.25,106.34,32.46-21.21,72.3-11.11,108.15,3.68s63.49,48,71.55,85.92c6,28,2.29,59.31,17.91,83.34,12.32,19,34,29.15,51.42,43.59,25.54,21.22,26.19,52.55,28.89,85.65,3.89,47.9-40.43,121-26.14,166.88,5.93,19,30.69,34.66,39.67,52.46,23.4,46.4,49.28,80.46,29.28,128.41-25.15,60.29-83.65,111.4-77.46,176.42,4.49,47.23,43.22,85.5,49.51,132.52,9.42,70.42-56,136.94-40.39,206.25,14.23,63.32,92.61,107.81,81.54,171.76-7.3,42.22-53.66,74.7-47.24,117.07,2,13.27,9.19,25.14,13.18,38,13.8,44.39-19.33,97.15-65.31,104-64.87,9.67-138,42.88-200.77,23.76-33.29-10.14-65.37-27.24-100.17-27.59-19.92-.2-39.44,5.17-58.64,10.5L2147,2401.43c-27.52,7.63-56.08,15.33-84.29,10.88-47.43-7.48-84.69-47.73-132.11-55.35-93.88-15.08-174.67,101.39-267.09,79-42.5-10.29-80.26-49.5-122.66-38.81-8,2-15.93,5.85-24.13,4.83S1498.5,2393.63,1502.83,2386.59Z" transform="translate(-663.18 -638.96)"/></g></g></g><g id="Layer_362" data-name="Layer 362"><g id="Layer_241" data-name="Layer 241"><g id="Layer_120" data-name="Layer 120"><g class="cls-3"><path class="cls-2" d="M2565.11,1596s88.89,553.85-354.58,657.47S1563.89,2128.23,1550,1994.55s138.14-328,138.14-328,204,193.83,568.58,80.57c83.58-26,163.3-99.43,193.32-148.78Z" transform="translate(-663.18 -638.96)"/></g></g></g></g><g id="Layer_361" data-name="Layer 361"><g id="Layer_240" data-name="Layer 240"><g id="Layer_119" data-name="Layer 119"><g class="cls-3"><path class="cls-2" d="M2357.56,789.48s176.07,118,238.32,403.16h24.81s93.89-143.23-47.63-238.87c0,0-14.76-188.16-125.8-188.16S2357.56,789.48,2357.56,789.48Z" transform="translate(-663.18 -638.96)"/></g></g></g></g><g id="Layer_360" data-name="Layer 360"><g id="Layer_239" data-name="Layer 239"><g id="Layer_118" data-name="Layer 118"><g class="cls-3"><path class="cls-2" d="M1632.8,810.11s-83.72,60.28-107.51,151c-13.27,50.62,9.86,128.66,9.86,128.66l-9.86,73.51-100,31.94s10-85.86,37.12-145.6c0,0-10-114,30.88-145.58S1632.8,810.11,1632.8,810.11Z" transform="translate(-663.18 -638.96)"/></g></g></g></g><g id="Layer_359" data-name="Layer 359"><g id="Layer_238" data-name="Layer 238"><g id="Layer_117" data-name="Layer 117"><path class="cls-5" d="M1969.84,1640.08S1869,1692,1773.59,1787.4s-125.07,198.48-157.29,260.54-114.46,107.15-114.46,107.15,107.92-17.42,145.58,104.35c0,0,68.78-35.65,99.95-107.4,0,0,23.38,64.85,9.72,101.88l750.81-4.68s-106.25-350.81-181.5-413.82l-75.25-63S2166.54,1626.58,1969.84,1640.08Z" transform="translate(-663.18 -638.96)"/></g></g></g><g id="Layer_358" data-name="Layer 358"><g id="Layer_237" data-name="Layer 237"><g id="Layer_116" data-name="Layer 116"><path class="cls-6" d="M1611.21,1145.65s-90.42,409.86,87.07,529.79,367,153.48,615.24,46.23,187.95-473.42,187.95-473.42-90.82-3.86-78.75-125.37c0,0-14.44-68.56-58.18-112.3s-24.26-103.31-24.26-103.31-31.11,70.34-123.58,83.57-133-32.57-178.91-32.57-97.21,89-137.72,89c-45.92,0-73.6-39.84-108-5.4s-55.19,87.24-93.76,87.24h-38.57Z" transform="translate(-663.18 -638.96)"/></g></g></g><g id="Layer_357" data-name="Layer 357"><g id="Layer_236" data-name="Layer 236"><g id="Layer_115" data-name="Layer 115"><path class="cls-7" d="M1752.9,2543.43v190.4s391.07,159.53,634.64-84V2543.43Z" transform="translate(-663.18 -638.96)"/></g></g></g><g id="Layer_356" data-name="Layer 356"><g id="Layer_235" data-name="Layer 235"><g id="Layer_114" data-name="Layer 114"><path class="cls-8" d="M1890.63,2936.38s-61.34,218.17,28.07,245.47S2023,3111.92,2023,3089s-13.85-166.22-13.85-166.22S1937.9,2958,1890.63,2936.38Z" transform="translate(-663.18 -638.96)"/></g></g></g><g id="Layer_355" data-name="Layer 355"><g id="Layer_234" data-name="Layer 234"><g id="Layer_113" data-name="Layer 113"><path class="cls-8" d="M2115.46,3108.55s51.58-66.85,136.17-66.85c0,0,60.31,80.44,60.31,140.15s-70.55,117.05-135.88,93.78S2115.46,3108.55,2115.46,3108.55Z" transform="translate(-663.18 -638.96)"/></g></g></g><g id="Layer_131" data-name="Layer 131"><g id="Layer_10" data-name="Layer 10"><path class="cls-9" d="M2130.47,2097.53a62.69,62.69,0,0,1,37.19-57.25,62.73,62.73,0,1,0-9.16,109.49A62.64,62.64,0,0,1,2130.47,2097.53Z" transform="translate(-663.18 -638.96)"/></g></g><g id="Layer_283" data-name="Layer 283"><g id="Layer_162" data-name="Layer 162"><g id="Layer_41" data-name="Layer 41"><path class="cls-2" d="M3322.93,3535.93h-68.87a16.21,16.21,0,0,1-16-13.43L3068,2546.21a16.2,16.2,0,1,1,31.92-5.56l167.81,962.86h37.42L3213.63,2545a16.21,16.21,0,0,1,32.27-3.08l93.16,976.29a16.21,16.21,0,0,1-16.13,17.75Z" transform="translate(-663.18 -638.96)"/></g></g></g><g id="Layer_282" data-name="Layer 282"><g id="Layer_161" data-name="Layer 161"><g id="Layer_40" data-name="Layer 40"><path class="cls-10" d="M1752.9,2543.43s58.16,214.7,206.52,298.5c60.84,34.36,156,266.62,156,266.62s50.41-66.85,136.17-66.85c0,0-129.75-447.29-180.73-498.27Z" transform="translate(-663.18 -638.96)"/></g></g></g><g id="Layer_281" data-name="Layer 281"><g id="Layer_160" data-name="Layer 160"><g id="Layer_39" data-name="Layer 39"><g class="cls-3"><path class="cls-2" d="M1752.9,2543.43l.13,4.85c20.38,77.34,59.12,150.8,113.5,209.58,2-71.77-2.09-144.63,24.43-212.67Z" transform="translate(-663.18 -638.96)"/></g></g></g></g><g id="Layer_280" data-name="Layer 280"><g id="Layer_159" data-name="Layer 159"><g id="Layer_38" data-name="Layer 38"><g class="cls-3"><path class="cls-2" d="M2101.29,2693.32c-40.44,7.35-47.52,64.72-60.59,111.61a488.35,488.35,0,0,1,149,35.53l-17.45-57.81.82-.24c-16.1-34-23-77-42.28-108.47C2121.22,2680.39,2111.38,2692.07,2101.29,2693.32Z" transform="translate(-663.18 -638.96)"/></g></g></g></g><g id="Layer_279" data-name="Layer 279"><g id="Layer_158" data-name="Layer 158"><g id="Layer_37" data-name="Layer 37"><path class="cls-2" d="M1077.36,3191.37H1032.8a16.21,16.21,0,0,1-16.14-17.74L1077,2541.89a16.21,16.21,0,0,1,32.27,3.08l-58.6,614h13.12l107.75-618.31a16.21,16.21,0,0,1,31.93,5.56L1093.32,3178A16.19,16.19,0,0,1,1077.36,3191.37Z" transform="translate(-663.18 -638.96)"/></g></g></g><g id="Layer_278" data-name="Layer 278"><g id="Layer_157" data-name="Layer 157"><g id="Layer_36" data-name="Layer 36"><path class="cls-2" d="M2972.15,3191.37h-44.56a16.2,16.2,0,0,1-16-13.42l-110.1-631.74a16.21,16.21,0,0,1,31.93-5.56L2941.22,3159h13.11l-58.59-614a16.2,16.2,0,1,1,32.26-3.08l60.29,631.74a16.2,16.2,0,0,1-16.14,17.74Z" transform="translate(-663.18 -638.96)"/></g></g></g><g id="Layer_277" data-name="Layer 277"><g id="Layer_156" data-name="Layer 156"><g id="Layer_35" data-name="Layer 35"><path class="cls-2" d="M2115.47,3124.75a16.23,16.23,0,0,1-15.17-10.49c-.73-1.94-74.11-194.67-167.4-275-194-167-196.21-290.67-196.21-295.85a16.21,16.21,0,0,1,32.42-.1c0,2,4.42,116,184.93,271.39,80.22,69.06,143.78,208.49,167.08,264.39,20.82-19.14,58.46-46.25,109.44-52.36-50.17-176.05-133.12-433.87-171.12-471.86a16.21,16.21,0,0,1,22.92-22.92c58,58,172.06,459.74,184.87,505.35a16.2,16.2,0,0,1-15.6,20.59c-75.77,0-122.87,59.93-123.33,60.54A16.25,16.25,0,0,1,2115.47,3124.75Zm-346.36-581.32h0Z" transform="translate(-663.18 -638.96)"/></g></g></g><g id="Layer_276" data-name="Layer 276"><g id="Layer_155" data-name="Layer 155"><g id="Layer_34" data-name="Layer 34"><path class="cls-2" d="M2209.26,3291.78c-30.92,0-60.38-11-74.87-36.92-29.16-52.21-28.81-149.58-28.79-153.69a16.2,16.2,0,0,1,16.21-16.09h.1a16.2,16.2,0,0,1,16.1,16.3c0,.93-.3,92.95,24.67,137.68,12.44,22.26,51.28,24.8,81.66,14.39,28.53-9.78,57.06-33.08,51.58-69.16-12.53-82.43-55.85-131.22-56.29-131.7a16.2,16.2,0,0,1,24-21.81c2.05,2.25,50.28,56,64.36,148.63,7,46-21.72,87.09-73.12,104.7A142.54,142.54,0,0,1,2209.26,3291.78Z" transform="translate(-663.18 -638.96)"/></g></g></g><g id="Layer_275" data-name="Layer 275"><g id="Layer_154" data-name="Layer 154"><g id="Layer_33" data-name="Layer 33"><path class="cls-2" d="M1575.33,1584.12c-56.83,0-155.84-11.72-200.63-87.72a231.61,231.61,0,0,1-18.64-40c-23.6-65.68-20.86-147.64,7-208.8,13.44-29.51,32-52.36,53.59-66.07,75.71-48,191.95-32.18,196.85-31.49a16.22,16.22,0,0,1,13.13,21.09c-.65,2-64.15,201,3.92,389.08a16.19,16.19,0,0,1-13.13,21.57A345.42,345.42,0,0,1,1575.33,1584.12ZM1563,1179.55c-37.59,0-90.6,5.07-129,29.38-16.29,10.33-30.62,28.36-41.45,52.13-24.53,53.87-26.88,126.27-6,184.45a200,200,0,0,0,16,34.41c41.21,69.93,146.5,73.21,190.65,71.25-50.41-159.2-17.4-316.7-3-370.74C1582.77,1179.94,1573.47,1179.55,1563,1179.55Z" transform="translate(-663.18 -638.96)"/><path class="cls-2" d="M1550,1580a12.14,12.14,0,0,1-11.09-7.18c-92-204.91-3.78-403.36,0-411.71a12.15,12.15,0,0,1,22.12,10.07c-.88,1.94-87.36,197,0,391.69A12.16,12.16,0,0,1,1550,1580Z" transform="translate(-663.18 -638.96)"/><path class="cls-2" d="M1371.32,1463.14a12.19,12.19,0,0,1-11.44-8c-23.27-64.77-20.58-145.55,6.86-205.79a12.15,12.15,0,0,1,17.52-5.25c27.06,17,44.54,59,44.54,106.94,0,52.83-21.75,98.57-52.9,111.24A12.13,12.13,0,0,1,1371.32,1463.14ZM1382.54,1275c-17.15,47.84-18.88,106.41-4.57,157,14.24-14,26.52-43.06,26.52-80.94C1404.49,1320.34,1395.88,1291.62,1382.54,1275Z" transform="translate(-663.18 -638.96)"/></g></g></g><g id="Layer_274" data-name="Layer 274"><g id="Layer_153" data-name="Layer 153"><g id="Layer_32" data-name="Layer 32"><path class="cls-2" d="M2503.48,1619.11c-33.17,0-57.23-5-59.64-5.52a16.21,16.21,0,0,1-11.07-23.09c79.69-159.26,61.17-401,61-403.38a16.21,16.21,0,0,1,16.44-17.52c5.05.09,124.34,2.88,178.45,62.56,11.92,13.12,21.82,29.79,29.45,49.53,24.22,62.79,21,145.79-8.21,211.45a236.54,236.54,0,0,1-35.42,57.07C2626.11,1607.42,2554.16,1619.11,2503.48,1619.11Zm-32.28-34.26c39.65,4,127.32,5,178.51-55.57a203.83,203.83,0,0,0,30.54-49.29,0,0,0,0,1,0,0c25.89-58.19,28.87-131.44,7.59-186.6-6.19-16-14-29.27-23.22-39.42-33.88-37.37-104.53-47.91-137.45-50.84C2530,1261.65,2532.93,1444.17,2471.2,1584.85Z" transform="translate(-663.18 -638.96)"/><path class="cls-2" d="M2503.28,1614.92a12,12,0,0,1-5.6-1.37,12.15,12.15,0,0,1-5.17-16.39c91.33-175.35,64.72-400.76,64.44-403a12.15,12.15,0,1,1,24.12-3c1.18,9.51,27.89,235-67,417.24A12.14,12.14,0,0,1,2503.28,1614.92Z" transform="translate(-663.18 -638.96)"/><path class="cls-2" d="M2695.06,1498.7a12.17,12.17,0,0,1-5.95-1.55c-28.08-15.78-47-59.35-47-108.43,0-56.25,23.56-102.64,57.29-112.83a12.14,12.14,0,0,1,14.85,7.26c23.86,61.83,20.67,143.61-8.13,208.34a12.15,12.15,0,0,1-7.28,6.59A12,12,0,0,1,2695.06,1498.7Zm1.06-193.76c-15.86,13-29.66,43.84-29.66,83.78,0,32.22,9.25,61.8,23.51,78C2708.89,1415,2711.21,1354.38,2696.12,1304.94Z" transform="translate(-663.18 -638.96)"/></g></g></g><g id="Layer_273" data-name="Layer 273"><g id="Layer_152" data-name="Layer 152"><g id="Layer_31" data-name="Layer 31"><path class="cls-11" d="M2780.55,1832.63l24.33-1.76a14.72,14.72,0,0,1,15.53,17.43l-81.8,430.33-53.16-2.13,81.7-431.92A14.73,14.73,0,0,1,2780.55,1832.63Z" transform="translate(-663.18 -638.96)"/><path class="cls-2" d="M2738.61,2294.83H2738l-53.15-2.13a16.21,16.21,0,0,1-15.27-19.21l81.7-431.91a31,31,0,0,1,28.15-25.1l24.32-1.77a30.93,30.93,0,0,1,32.63,36.63l-81.81,430.32A16.2,16.2,0,0,1,2738.61,2294.83Zm-33.75-33.77,20.43.82,78.84-414.71-21.27,1.54Zm76.87-412.26Zm-1.18-16.17h0Z" transform="translate(-663.18 -638.96)"/><path class="cls-11" d="M2904.65,2289.47c0,16.53-69,38-154.14,38s-154.15-21.5-154.15-38,69-29.93,154.15-29.93S2904.65,2272.94,2904.65,2289.47Z" transform="translate(-663.18 -638.96)"/><path class="cls-12" d="M2859.52,2097.28S2752,2161,2642,2161l24.19,117.6h163.25Z" transform="translate(-663.18 -638.96)"/><circle class="cls-13" cx="2706.4" cy="2187.95" r="20.95" transform="translate(-708.01 3680.31) rotate(-76.72)"/><circle class="cls-13" cx="2108.53" cy="1584.1" r="20.95"/><circle class="cls-13" cx="2139.86" cy="1528.04" r="20.95"/><g class="cls-3"><path class="cls-14" d="M2612.42,2043.69s22.14-117.2,130.5-107.35c98.12,8.91,122.83,95.19,122.83,95.19l-41.33,249.14H2661.17Z" transform="translate(-663.18 -638.96)"/></g><g class="cls-3"><path class="cls-2" d="M2723.19,1934.29s70.35,39.64,103.34,109.69-76,249.54-76,249.54l78.93-14.89S2897.52,2080.15,2863,2011s-59.94-71.31-59.94-71.31L2824,1829.48h-26l-26.26,108.75Z" transform="translate(-663.18 -638.96)"/></g><path class="cls-2" d="M2750.65,2301.58a566.76,566.76,0,0,1-87-6.94,16.2,16.2,0,0,1-13.38-12.75l-48.76-237a16.14,16.14,0,0,1,0-6.27c8.61-45.54,50.59-129.35,147.89-120.49,107.93,9.81,135.81,102.92,136.94,106.88a16.12,16.12,0,0,1,.41,7.11l-41.32,249.14a16.21,16.21,0,0,1-13.14,13.3A463.85,463.85,0,0,1,2750.65,2301.58Zm-70.88-37.35c47.83,6.5,93.33,6.6,135.59.28l38.77-233.72c-5.31-14.58-31.35-73.43-107.66-80.36-84.81-7.78-108.49,74.21-112.48,91.28Z" transform="translate(-663.18 -638.96)"/><path class="cls-2" d="M2720.78,2070.76c-65.15,0-105.44-16.79-108.15-18a12.15,12.15,0,0,1,9.58-22.34c1.07.45,102.47,42.15,244.2-12.32a12.15,12.15,0,1,1,8.72,22.68C2815.58,2063.72,2763,2070.76,2720.78,2070.76Z" transform="translate(-663.18 -638.96)"/><path class="cls-2" d="M2720.54,2117.29c-62,0-97-17.87-99.35-19.09a12.16,12.16,0,0,1,11.29-21.53h0c.84.44,85.17,42.58,226.14-11.59a12.15,12.15,0,1,1,8.72,22.69C2808.78,2110.28,2759.37,2117.29,2720.54,2117.29Z" transform="translate(-663.18 -638.96)"/></g></g></g><g id="Layer_272" data-name="Layer 272"><g id="Layer_151" data-name="Layer 151"><g id="Layer_30" data-name="Layer 30"><path class="cls-2" d="M1724.79,2203.3a12.16,12.16,0,0,1-11.89-9.7c-23.81-115.72-133.3-111.61-137.9-111.39l-.61,0a12.15,12.15,0,0,1-.68-24.29c1.33-.05,134.9-5.75,163,130.76a12.14,12.14,0,0,1-9.45,14.35A11.51,11.51,0,0,1,1724.79,2203.3Z" transform="translate(-663.18 -638.96)"/></g></g></g><g id="Layer_271" data-name="Layer 271"><g id="Layer_150" data-name="Layer 150"><g id="Layer_29" data-name="Layer 29"><path class="cls-2" d="M1698.27,2237.39a12.16,12.16,0,0,1-11.7-8.89C1655.74,2118.15,1549,2112.21,1544.42,2112a12.15,12.15,0,0,1,1-24.28c1.28.05,128.9,6.55,164.57,134.23a12.16,12.16,0,0,1-8.43,15A12.46,12.46,0,0,1,1698.27,2237.39Z" transform="translate(-663.18 -638.96)"/></g></g></g><g id="Layer_270" data-name="Layer 270"><g id="Layer_149" data-name="Layer 149"><g id="Layer_28" data-name="Layer 28"><path class="cls-10" d="M2372.7,2543.43s-46,105.14-139.1,126.45l-93.06,21.3-11-29.43s-85.9,84.3-110.4,248.33c0,0-35.31,64.11-128.49,26.3,0,0-65.91-216.06-2.57-384.85Z" transform="translate(-663.18 -638.96)"/></g></g></g><g id="Layer_269" data-name="Layer 269"><g id="Layer_148" data-name="Layer 148"><g id="Layer_27" data-name="Layer 27"><g class="cls-3"><path class="cls-2" d="M2101.29,2693.32c111.05-15.32,211.23-52.39,273.18-142L1891,2545.19c-34.92,89.6-16.85,187.54-29.24,280.36,9.36-3.46,80.32-28.18,179-20.62C2053.77,2758,2060.85,2700.67,2101.29,2693.32Z" transform="translate(-663.18 -638.96)"/></g></g></g></g><g id="Layer_268" data-name="Layer 268"><g id="Layer_147" data-name="Layer 147"><g id="Layer_26" data-name="Layer 26"><path class="cls-2" d="M1942.13,2965.38c-35,0-58.48-14.25-60.08-15.26a16.18,16.18,0,0,1-6.79-8.62c-67.8-203.42-2.74-395.32.07-403.39a16.21,16.21,0,0,1,30.62,10.63h0c-.65,1.85-62.81,185.86-2,376.34,13.08,5.94,51.38,18.49,97.66-10.65,6.23-30.51,32.72-153.86,63.74-205,22.54-37.15,48.83-58.06,78.13-62.16,36.72-5.11,63.23,18.94,64.33,20a16.2,16.2,0,0,1-22,23.77c-.07-.06-16.71-14.76-38.14-11.59-19.08,2.82-37.44,18.58-54.58,46.83-31.79,52.39-60.69,199.58-61,201.06a16.22,16.22,0,0,1-6.69,10.24C1994.54,2958.9,1965.71,2965.38,1942.13,2965.38Z" transform="translate(-663.18 -638.96)"/></g></g></g><g id="Layer_267" data-name="Layer 267"><g id="Layer_146" data-name="Layer 146"><g id="Layer_25" data-name="Layer 25"><path class="cls-2" d="M1947.86,3198c-22.76,0-45.35-9.46-63.29-27.4-53.54-53.54-14.31-219.42-9.66-238.16a16.2,16.2,0,1,1,31.45,7.8c-15.83,63.93-29.52,176.79,1.13,207.44,17.15,17.16,39.43,22.39,59.6,14.05,24.84-10.29,39.67-37.5,39.67-72.8,0-84.75-6.62-162.58-6.69-163.35a16.21,16.21,0,0,1,32.29-2.79c.07.8,6.81,80,6.81,166.14,0,48.12-22.87,87.49-59.67,102.74A82.6,82.6,0,0,1,1947.86,3198Z" transform="translate(-663.18 -638.96)"/></g></g></g><g id="Layer_266" data-name="Layer 266"><g id="Layer_145" data-name="Layer 145"><g id="Layer_24" data-name="Layer 24"><path class="cls-2" d="M2148.53,2699.4a16.21,16.21,0,0,1,0-32.41c156.46,0,207-124.16,209.08-129.44a16.2,16.2,0,0,1,30.21,11.73C2387.24,2550.77,2327.71,2699.4,2148.53,2699.4Z" transform="translate(-663.18 -638.96)"/></g></g></g><g id="Layer_265" data-name="Layer 265"><g id="Layer_144" data-name="Layer 144"><g id="Layer_23" data-name="Layer 23"><path class="cls-2" d="M3284.18,2559.64H748.25a16.2,16.2,0,0,1-16.2-16.21v-85.07a16.2,16.2,0,0,1,16.2-16.2H3284.18a16.2,16.2,0,0,1,16.21,16.2v85.07A16.21,16.21,0,0,1,3284.18,2559.64ZM764.46,2527.22H3268v-52.65H764.46Z" transform="translate(-663.18 -638.96)"/></g></g></g><g id="Layer_264" data-name="Layer 264"><g id="Layer_143" data-name="Layer 143"><g id="Layer_22" data-name="Layer 22"><rect class="cls-15" x="1071.86" y="1199.6" width="798.85" height="531.63"/></g></g></g><g id="Layer_263" data-name="Layer 263"><g id="Layer_142" data-name="Layer 142"><g id="Layer_21" data-name="Layer 21"><g class="cls-16"><path class="cls-9" d="M2526.85,1849.17l-713.42,38.23a29.43,29.43,0,0,0-26.92,26L1735,2361.14V1838.56Z" transform="translate(-663.18 -638.96)"/></g></g></g></g><g id="Layer_262" data-name="Layer 262"><g id="Layer_141" data-name="Layer 141"><g id="Layer_20" data-name="Layer 20"><path class="cls-2" d="M2508.56,2386.39H1760.38a41.59,41.59,0,0,1-41.55-41.54v-481a41.59,41.59,0,0,1,41.55-41.54h748.18a41.59,41.59,0,0,1,41.54,41.54v481A41.59,41.59,0,0,1,2508.56,2386.39Zm-748.18-531.63a9.15,9.15,0,0,0-9.14,9.13v481a9.14,9.14,0,0,0,9.14,9.13h748.18a9.14,9.14,0,0,0,9.13-9.13v-481a9.15,9.15,0,0,0-9.13-9.13Z" transform="translate(-663.18 -638.96)"/></g></g></g><g id="Layer_261" data-name="Layer 261"><g id="Layer_140" data-name="Layer 140"><g id="Layer_19" data-name="Layer 19"><circle class="cls-2" cx="1268.44" cy="750.69" r="19.49"/></g></g></g><g id="Layer_260" data-name="Layer 260"><g id="Layer_139" data-name="Layer 139"><g id="Layer_18" data-name="Layer 18"><circle class="cls-2" cx="1501.23" cy="750.79" r="19.49"/></g></g></g><g id="Layer_259" data-name="Layer 259"><g id="Layer_138" data-name="Layer 138"><g id="Layer_17" data-name="Layer 17"><path class="cls-2" d="M2135.35,3207.4a12,12,0,0,1-4.8-1,12.12,12.12,0,0,1-6.37-15.9c.44-1,45.47-102.7,174.9-81.11a12.15,12.15,0,0,1-4,24c-110.18-18.34-147.06,63.23-148.57,66.72A12.2,12.2,0,0,1,2135.35,3207.4Z" transform="translate(-663.18 -638.96)"/></g></g></g><g id="Layer_258" data-name="Layer 258"><g id="Layer_137" data-name="Layer 137"><g id="Layer_16" data-name="Layer 16"><path class="cls-2" d="M1875.29,3120.67a12,12,0,0,1-5.94-1.57,12.12,12.12,0,0,1-4.65-16.48c.49-.87,49.67-86.14,156.49-38.25a12.15,12.15,0,0,1-10,22.18c-86.15-38.63-123.79,25.24-125.35,28A12.19,12.19,0,0,1,1875.29,3120.67Z" transform="translate(-663.18 -638.96)"/></g></g></g><g id="Layer_257" data-name="Layer 257"><g id="Layer_136" data-name="Layer 136"><g id="Layer_15" data-name="Layer 15"><g class="cls-3"><path class="cls-2" d="M1379.22,2231.75s38.35,52.14,169.55-11.91c0,0,34.92,23.29,72.27-14.07,0,0,35.13,56.52-17.36,71.69s-59.34-38.07-59.34-38.07-72.16,117.17-176.53,34.89C1367.81,2274.28,1353.5,2246.15,1379.22,2231.75Z" transform="translate(-663.18 -638.96)"/></g></g></g></g><g id="Layer_256" data-name="Layer 256"><g id="Layer_135" data-name="Layer 135"><g id="Layer_14" data-name="Layer 14"><path class="cls-2" d="M1440.42,2192a87.39,87.39,0,0,0-19.48,12.92,124.28,124.28,0,0,0-15.91,16.48,136.65,136.65,0,0,0-12.39,18.82c-1.93,3.17-3.33,6.69-5,10s-2.82,6.88-4.23,10.26l-.28.68a12.29,12.29,0,0,1-22.7-9.45A13.07,13.07,0,0,1,1362,2249c2.57-3.41,5-6.85,7.67-10.13s5.32-6.53,8.36-9.5a152.21,152.21,0,0,1,18.61-16.72,133.6,133.6,0,0,1,21-12.82A89.73,89.73,0,0,1,1440.42,2192Z" transform="translate(-663.18 -638.96)"/></g></g></g><g id="Layer_255" data-name="Layer 255"><g id="Layer_134" data-name="Layer 134"><g id="Layer_13" data-name="Layer 13"><path class="cls-2" d="M1460.27,2210.22a163.52,163.52,0,0,0-17,18.41,224.24,224.24,0,0,0-14.49,20.14,234.75,234.75,0,0,0-12.11,21.33c-3.71,7.23-6.85,14.71-9.81,22.16l-.07.19a12.25,12.25,0,1,1-22.77-9,12.54,12.54,0,0,1,1.4-2.58c5.13-7.21,10.37-14.26,16.11-20.87a247.07,247.07,0,0,1,17.9-18.94,235.08,235.08,0,0,1,19.61-16.75A167,167,0,0,1,1460.27,2210.22Z" transform="translate(-663.18 -638.96)"/></g></g></g><g id="Layer_254" data-name="Layer 254"><g id="Layer_133" data-name="Layer 133"><g id="Layer_12" data-name="Layer 12"><path class="cls-2" d="M1498.68,2223.32A195.55,195.55,0,0,0,1484,2242.8c-4.52,6.74-8.72,13.65-12.66,20.66s-7.59,14.16-10.88,21.45-6.4,14.61-9.27,22l-.05.11a12.25,12.25,0,1,1-22.83-8.9,13.56,13.56,0,0,1,1.43-2.66c4.93-6.91,9.94-13.71,15.28-20.23s10.86-12.84,16.53-19,11.7-11.91,17.87-17.45A199,199,0,0,1,1498.68,2223.32Z" transform="translate(-663.18 -638.96)"/></g></g></g><g id="Layer_253" data-name="Layer 253"><g id="Layer_132" data-name="Layer 132"><g id="Layer_11" data-name="Layer 11"><path class="cls-2" d="M1928.14,1301.27c-14.05-8.83-28.82-16.71-43.23-22.23s-29-8.58-43-8.52a95,95,0,0,0-41.19,9.8c-13.35,6.35-26.27,15.31-38.56,25.86l-1.9,1.64a13.36,13.36,0,0,1-14.8,1.71,63,63,0,0,1-8.16-5.16,77.06,77.06,0,0,1-7.07-5.68,74.81,74.81,0,0,1-12.13-13.76,54.66,54.66,0,0,1-7.8-17.25,42.67,42.67,0,0,1-.27-18.7,6.26,6.26,0,0,1,12.18-.41l.25.94a38.18,38.18,0,0,0,4.85,11.56,49.56,49.56,0,0,0,8.18,9,75.39,75.39,0,0,0,10.61,7c1.89,1,3.81,2,5.78,2.89a46.62,46.62,0,0,0,5.46,2.11l-16.7,3.34c11.7-14.38,26.06-27.49,43.42-37.24a113.33,113.33,0,0,1,28-11.25,103,103,0,0,1,30.6-3.34,111.5,111.5,0,0,1,56.32,18.6c16.16,10.72,29.31,24.21,38.6,41a6.33,6.33,0,0,1-8.89,8.43Z" transform="translate(-663.18 -638.96)"/><path class="cls-2" d="M1788.5,1279.48a39,39,0,0,1-10.63-3.67,46.55,46.55,0,0,1-8.8-5.81,62.68,62.68,0,0,1-13.92-16.54,60.7,60.7,0,0,1-7.73-21.08c-1-7.56-.13-15.27,3-21.67a3,3,0,0,1,4-1.4,2.86,2.86,0,0,1,1.08.89l.21.28a60.8,60.8,0,0,0,11.72,12.26,98.36,98.36,0,0,0,12.38,7.75c4.23,2.24,8.66,4.08,12.72,6.45,2,1.17,4.06,2.42,6,3.8,1,.73,1.9,1.39,2.8,2.21s2,1.68,2.14,2.36l3.93,13.8a16.25,16.25,0,0,1-11.18,20.09A16.47,16.47,0,0,1,1788.5,1279.48Z" transform="translate(-663.18 -638.96)"/><path class="cls-2" d="M2158.48,1293.21c9.28-16.76,22.44-30.25,38.59-41a111.5,111.5,0,0,1,56.32-18.6A103,103,0,0,1,2284,1237a113.33,113.33,0,0,1,28,11.25c17.36,9.75,31.72,22.86,43.42,37.24l-16.7-3.34a46,46,0,0,0,5.46-2.11c2-.85,3.89-1.86,5.78-2.89a75.39,75.39,0,0,0,10.61-7,49.2,49.2,0,0,0,8.18-9,38.45,38.45,0,0,0,4.86-11.56l.25-.94a6.25,6.25,0,0,1,12.17.41,42.52,42.52,0,0,1-.27,18.7,54.87,54.87,0,0,1-7.79,17.25,74.86,74.86,0,0,1-12.14,13.76,78.31,78.31,0,0,1-7.06,5.68,62.44,62.44,0,0,1-8.17,5.16,13.31,13.31,0,0,1-14.77-1.69l-1.93-1.66c-12.29-10.55-25.21-19.51-38.56-25.86a95,95,0,0,0-41.19-9.8c-14-.06-28.5,3-43,8.52s-29.18,13.4-43.23,22.23l-.57.36a6.32,6.32,0,0,1-8.89-8.42Z" transform="translate(-663.18 -638.96)"/><path class="cls-2" d="M2292.61,1245.31c.19-.68,1.36-1.61,2.14-2.36s1.86-1.48,2.81-2.21c1.92-1.38,4-2.63,6-3.8,4.06-2.37,8.49-4.21,12.73-6.45a99,99,0,0,0,12.37-7.75,60.53,60.53,0,0,0,11.72-12.26l.2-.27a3,3,0,0,1,4.22-.6,2.88,2.88,0,0,1,.9,1.1c3.11,6.4,4,14.11,3,21.67a60.69,60.69,0,0,1-7.72,21.08A62.91,62.91,0,0,1,2327,1270a46.55,46.55,0,0,1-8.8,5.81,39.06,39.06,0,0,1-10.62,3.67,16.25,16.25,0,0,1-18.93-20.3Z" transform="translate(-663.18 -638.96)"/></g></g></g><g id="Layer_317" data-name="Layer 317"><g id="Layer_196" data-name="Layer 196"><g id="Layer_75" data-name="Layer 75"><g class="cls-16"><polygon class="cls-9" points="2434.66 1984.36 2659.75 2880.76 2590.88 2880.76 2434.66 1984.36"/></g></g></g></g><g id="Layer_316" data-name="Layer 316"><g id="Layer_195" data-name="Layer 195"><g id="Layer_74" data-name="Layer 74"><g class="cls-16"><path class="cls-9" d="M2318.52,900s-59,76.65-139.64,52.89-173.16-55.06-232.79,4.57-101.35,11.62-144.73,37.22-56.31,103.85-94,128.92c0,0,60.88-96.69,94-96.69s84.71,17.66,125.24-7.72,71.84-82.45,124.72-65.21S2273.49,1032,2318.52,900Z" transform="translate(-663.18 -638.96)"/></g></g></g></g><g id="Layer_315" data-name="Layer 315"><g id="Layer_194" data-name="Layer 194"><g id="Layer_73" data-name="Layer 73"><g class="cls-16"><path class="cls-9" d="M1564.22,1152.14s-18-292.61,372.94-422.89c0,0-219-1.59-334.33,192.32s-70.43,230.57-70.43,230.57Z" transform="translate(-663.18 -638.96)"/></g></g></g></g><g id="Layer_314" data-name="Layer 314"><g id="Layer_193" data-name="Layer 193"><g id="Layer_72" data-name="Layer 72"><path class="cls-2" d="M1751,2269.22a16,16,0,0,1-3.91-.48,16.21,16.21,0,0,1-11.84-19.62,126,126,0,0,0-4.22-74.81c-25.75-70.31,8.92-206.42,10.41-212.17a16.2,16.2,0,1,1,31.38,8.1c-.34,1.32-33.64,132.08-11.36,192.93a160,160,0,0,1,5.25,93.73A16.21,16.21,0,0,1,1751,2269.22Z" transform="translate(-663.18 -638.96)"/></g></g></g><g id="Layer_313" data-name="Layer 313"><g id="Layer_192" data-name="Layer 192"><g id="Layer_71" data-name="Layer 71"><path class="cls-2" d="M3284.16,2474.57a16.23,16.23,0,0,1-9.38-3l-340.11-242H1085.76L757.87,2471.4a16.2,16.2,0,1,1-19.24-26.08l332.19-245a16.13,16.13,0,0,1,9.61-3.16H2939.84a16.24,16.24,0,0,1,9.4,3l344.33,245a16.21,16.21,0,0,1-9.41,29.41Z" transform="translate(-663.18 -638.96)"/></g></g></g><g id="Layer_312" data-name="Layer 312"><g id="Layer_191" data-name="Layer 191"><g id="Layer_70" data-name="Layer 70"><path class="cls-2" d="M1997,2804.63c-106.89,0-204.28-20.73-253.82-57.84a16.17,16.17,0,0,1-6.5-13V2561.66a16.21,16.21,0,1,1,32.42,0v163.71c67.35,43.73,228.51,59.42,366.62,34.75,112.53-20.09,195.92-62.73,235.61-120.33v-88.26a16.21,16.21,0,0,1,32.41,0v93.17a16.18,16.18,0,0,1-2.6,8.81c-43.5,67.19-135.74,116.38-259.72,138.51A829.25,829.25,0,0,1,1997,2804.63Z" transform="translate(-663.18 -638.96)"/></g></g></g><g id="Layer_311" data-name="Layer 311"><g id="Layer_190" data-name="Layer 190"><g id="Layer_69" data-name="Layer 69"><path class="cls-2" d="M2500.82,1264.19c-37.94,0-81.24-25.7-91.16-75.19-3.9-19.5-2.87-34.23-2-47.23,1-14.78,1.87-26.46-4.29-43.79-4.35-12.26-13.37-23.18-22.91-34.75-4.28-5.19-8.72-10.57-12.87-16.24a204.18,204.18,0,0,1-37.82-99.51c-47.61,50-122.63,74.89-189.88,55.82-12.34-3.5-24.52-8.23-36.3-12.82-28.23-11-54.89-21.35-79.06-13.3C2007,983,1993.08,998,1978.34,1014c-3.35,3.6-6.67,7.19-10,10.68-29.06,30.06-59.09,42.68-86.88,36.53-12.23-2.72-22.19-7-31-10.68-18.84-8-28.3-12-48.81,1.4-20.82,13.62-34.39,38.75-47.52,63l-2.85,5.26c-12.74,23.46-38.47,24.57-61.17,25.56-25.62,1.12-49.83,2.17-64.83,28.41a16.2,16.2,0,0,1-28.13-16.09c23.87-41.75,63-43.45,91.55-44.69,20.47-.9,30.51-2,34.11-8.66l2.8-5.19c14.35-26.56,30.61-56.66,58.3-74.77,35-22.88,58.48-12.91,79.21-4.11,7.87,3.34,16,6.79,25.34,8.86,20.48,4.57,42-12.4,56.55-27.41,3.21-3.32,6.39-6.75,9.57-10.18,16.09-17.36,34.32-37,59.76-45.5,35.26-11.73,68.71,1.28,101.05,13.86,11.59,4.51,22.53,8.77,33.39,11.84,72.69,20.6,159.69-23.56,187.76-93.48q1.53-4.71,3.37-9.27a16.21,16.21,0,0,1,30.43,11.1q-1.5,4.62-3.27,9.11c-13.27,42.33-2.82,97.85,26.73,138.27,3.59,4.92,7.54,9.7,11.71,14.76,10.91,13.22,22.19,26.89,28.45,44.53,8.41,23.69,7.23,40.57,6.08,56.9-.84,12-1.64,23.38,1.41,38.59,7.25,36.15,40.61,49.36,59.87,49.15h.16a16.2,16.2,0,0,1,.15,32.4Z" transform="translate(-663.18 -638.96)"/></g></g></g><g id="Layer_310" data-name="Layer 310"><g id="Layer_189" data-name="Layer 189"><g id="Layer_68" data-name="Layer 68"><path class="cls-2" d="M1415.24,2281.35a16.22,16.22,0,0,1-16.08-14.39,153.18,153.18,0,0,1,3.36-54.2c3.7-14.89,9.44-29.22,15-43.07,10.26-25.58,20-49.75,15-72.94-3.35-15.64-13.27-29.82-23.78-44.83-6.67-9.51-13.56-19.35-19.19-30.15-36.74-70.42-6.29-152.11,31-200.66,5.8-7.57,12.12-15.2,18.23-22.58,27.06-32.71,52.62-63.6,46-97.54-3.18-16.18-13.85-30.83-25.16-46.34-12.8-17.57-26-35.73-30.69-58.77-6.49-32.14,5.75-61,17.58-88.88,6.49-15.3,12.62-29.75,15.58-44.3,9.16-45-6.91-80-23.93-117.06-19-41.3-38.57-84-24-140.81,2.3-8.91,1.19-18.51-.22-30.66-3.11-27-7.39-63.91,27.55-116.8,9.71-14.71,8.46-35.35,7.13-57.2-1.3-21.49-2.65-43.71,5.5-64.87,18.23-47.38,61.67-71.68,103.68-95.18,27.66-15.47,56.25-31.47,75.81-53.59,6-6.83,11.45-14.47,17.17-22.54,9.25-13.06,18.81-26.57,32-37.72,29.34-24.86,66.29-30.23,102-35.43,19.51-2.84,37.94-5.52,55-11.15,12.47-4.13,24.57-10,37.38-16.18,22.38-10.82,45.52-22,72.05-24.18,26-2.08,50.14,4.86,73.52,11.6,15.18,4.37,29.51,8.5,43.92,10.13,23.08,2.63,46.55-1.15,71.4-5.15,21.25-3.42,43.26-7,65.74-6.4,62.86,1.57,140.59,33.68,173.13,100.28,36.82-13.84,77.27-.9,106.05,11,40.9,16.88,72,54.25,81.22,97.54,2.17,10.22,3.15,20.51,4.09,30.45,1.69,17.85,3.29,34.7,11.56,47.42,6.62,10.2,17.69,17.9,29.4,26.06,6.23,4.33,12.66,8.81,18.78,13.9,29.06,24.14,31.65,57.65,34.15,90.06l.54,6.74c2,24.4-6.51,52.91-14.73,80.47-9.11,30.59-18.53,62.21-12.09,82.9,2.15,6.91,10,15.1,17.51,23,7.9,8.29,16.06,16.85,21.16,27,3.34,6.63,6.74,13,10,19.2,20.45,38.4,39.78,74.68,19.73,122.75-9.3,22.29-22.64,43-35.54,63.06-22.76,35.36-44.25,68.76-40.75,105.59,2,21.08,12.29,41,23.18,62,11.22,21.71,22.82,44.16,26.26,69.88,5.09,38.06-8.69,73.54-22,107.85-13.17,33.89-25.61,65.89-18.62,97,5.34,23.77,21.58,45.24,38.77,68,24.8,32.79,50.44,66.69,42.93,110.11-3.72,21.52-15.23,39.56-26.36,57-12.64,19.81-23.55,36.91-20.83,54.89.94,6.18,3.68,12.71,6.57,19.62,1.32,3.18,2.65,6.36,3.86,9.58a16.2,16.2,0,1,1-30.34,11.39c-1.06-2.84-2.24-5.65-3.42-8.46-3.36-8-7.17-17.13-8.71-27.27-4.54-30,11.44-55.07,25.55-77.18,9.84-15.42,19.13-30,21.75-45.1,5.11-29.56-14.33-55.26-36.84-85-18.52-24.49-37.67-49.8-44.55-80.41-9.15-40.74,5.68-78.92,20-115.84,12.39-31.89,24.09-62,20.11-91.82-2.69-20.13-12.53-39.15-22.93-59.29-11.83-22.87-24.05-46.52-26.65-73.85-4.57-48,21-87.74,45.75-126.19,12.14-18.85,24.7-38.36,32.89-58,14.14-33.9.48-59.54-18.43-95-3.41-6.41-6.92-13-10.37-19.84-2.93-5.82-9.41-12.62-15.68-19.2-10.12-10.62-20.58-21.6-25-35.73-9.38-30.13,1.48-66.57,12-101.8,7.37-24.7,15-50.25,13.48-68.6l-.54-6.86c-2.26-29.19-4-52.25-22.55-67.64-5.06-4.21-10.66-8.1-16.58-12.22-13.76-9.58-28-19.49-38.07-35-12.6-19.39-14.66-41.06-16.64-62-.9-9.45-1.75-18.38-3.53-26.78-6.9-32.48-31.19-61.64-61.89-74.31-42.78-17.65-71.49-19.22-93.1-5.1a16.19,16.19,0,0,1-24.19-8.31c-20.8-60.69-91.37-93.93-150.33-95.39-19.48-.49-39.07,2.66-59.79,6-25.9,4.17-52.67,8.49-80.19,5.35-17.11-1.93-33.45-6.64-49.25-11.2-21.53-6.2-41.88-12.08-61.91-10.42-20.5,1.66-40,11.08-60.56,21.05-13.2,6.38-26.84,13-41.34,17.77-19.74,6.53-40.45,9.54-60.48,12.45-32.66,4.75-63.5,9.24-85.76,28.09-10,8.5-18,19.77-26.46,31.71-6,8.43-12.13,17.14-19.34,25.3-23.21,26.24-54.25,43.6-84.27,60.39-38.69,21.65-75.23,42.09-89.26,78.54-5.61,14.59-4.53,32.4-3.39,51.27,1.51,25,3.23,53.28-12.44,77-28.43,43-25.36,69.57-22.39,95.22,1.57,13.63,3.2,27.72-.59,42.46-11.76,45.65,4.65,81.38,22,119.22,18.44,40.17,37.51,81.71,26.24,137-3.61,17.74-10.67,34.39-17.5,50.49-10.37,24.43-20.16,47.51-15.65,69.82,3.25,16.09,13.87,30.66,25.12,46.1,12.88,17.68,26.2,36,30.75,59.18,9.63,49-23.53,89.09-52.78,124.44-6.2,7.48-12,14.55-17.48,21.64-31.44,41-57.63,109.05-27.94,166,4.66,8.93,10.65,17.49,17,26.55,11.9,17,24.22,34.57,28.93,56.65,7,32.85-5,62.81-16.6,91.77-5.38,13.42-10.46,26.1-13.62,38.82a120.51,120.51,0,0,0-2.6,42.75,16.27,16.27,0,0,1-16.13,18Z" transform="translate(-663.18 -638.96)"/></g></g></g><g id="Layer_309" data-name="Layer 309"><g id="Layer_188" data-name="Layer 188"><g id="Layer_67" data-name="Layer 67"><path class="cls-2" d="M2017,1807.65q-12.8,0-25.08-.59c-155.17-7.6-351.33-106-397.64-251.76-45.23-142.34-.93-382,1-392.18a16.2,16.2,0,0,1,31.85,6c-.45,2.41-44.69,241.84-1.94,376.37,42.1,132.5,224,222.14,368.33,229.21,148.13,7.27,393.21-53.24,448.87-206.15,57.34-157.55,43.09-317.43,42.94-319a16.21,16.21,0,0,1,32.27-3.06c.64,6.8,15.17,168.52-44.76,333.18-35.57,97.72-133,152.83-208.48,181.87C2188.71,1790.59,2096.26,1807.65,2017,1807.65Z" transform="translate(-663.18 -638.96)"/></g></g></g><g id="Layer_308" data-name="Layer 308"><g id="Layer_187" data-name="Layer 187"><g id="Layer_66" data-name="Layer 66"><path class="cls-2" d="M2044.54,1451.07c-71.48,0-115.94-50.35-116.6-51.12a12.15,12.15,0,0,1,18.43-15.85c3.61,4.15,86.6,96.7,210.37-3.88a12.15,12.15,0,1,1,15.33,18.86C2124.06,1438.09,2080.82,1451.07,2044.54,1451.07Z" transform="translate(-663.18 -638.96)"/></g></g></g><g id="Layer_307" data-name="Layer 307"><g id="Layer_186" data-name="Layer 186"><g id="Layer_65" data-name="Layer 65"><path class="cls-17" d="M2695.06,1486.55a219.93,219.93,0,0,1-33,53.19c-74.62,88.31-214.83,58-214.83,58,82.72-165.32,62.63-411.94,62.63-411.94s116.71,2.06,166.74,57.24c10.78,11.87,19.61,27.06,26.33,44.48C2724.39,1343.07,2724.15,1421.17,2695.06,1486.55Z" transform="translate(-663.18 -638.96)"/></g></g></g><g id="Layer_306" data-name="Layer 306"><g id="Layer_185" data-name="Layer 185"><g id="Layer_64" data-name="Layer 64"><g class="cls-16"><path class="cls-9" d="M2538.18,1179.67s172.62,90.76,172.62,259.38c0,0,30.8-138.67-45.35-207.19C2605.62,1178,2538.18,1179.67,2538.18,1179.67Z" transform="translate(-663.18 -638.96)"/></g></g></g></g><g id="Layer_305" data-name="Layer 305"><g id="Layer_184" data-name="Layer 184"><g id="Layer_63" data-name="Layer 63"><path class="cls-17" d="M1615.31,1565.75s-168,22-226.66-77.58a215.35,215.35,0,0,1-17.33-37.19c-23.5-65.38-18.4-142,6.48-196.63,11.75-25.81,27.91-46.67,47.52-59.11,71.54-45.33,185.9-29.12,185.9-29.12S1544.42,1369.88,1615.31,1565.75Z" transform="translate(-663.18 -638.96)"/></g></g></g><g id="Layer_304" data-name="Layer 304"><g id="Layer_183" data-name="Layer 183"><g id="Layer_62" data-name="Layer 62"><g class="cls-16"><path class="cls-9" d="M1468.8,1212.28c66.94-51.42,118.63-49,118.63-49s-63.9-32.37-181.87,48.47c-92.21,63.2-29.77,276.77-29.77,276.77-23.66-109.66,6.31-185.79,51.91-237.93a28.38,28.38,0,1,0,41.1-38.33Z" transform="translate(-663.18 -638.96)"/></g></g></g></g><g id="Layer_303" data-name="Layer 303"><g id="Layer_182" data-name="Layer 182"><g id="Layer_61" data-name="Layer 61"><path class="cls-10" d="M2575.76,1194a386.44,386.44,0,0,0-65.87-8.2s20.09,246.62-62.63,411.94c0,0,27.06,5.84,63.73,4.91C2565.08,1470.68,2577.56,1335.37,2575.76,1194Z" transform="translate(-663.18 -638.96)"/></g></g></g><g id="Layer_302" data-name="Layer 302"><g id="Layer_181" data-name="Layer 181"><g id="Layer_60" data-name="Layer 60"><path class="cls-10" d="M1615.31,1565.75c-70.89-195.87-4.09-399.63-4.09-399.63a391.21,391.21,0,0,0-54.16-2.77c-67.32,116.26-67.9,277.25-11.62,403.28C1584.9,1569.73,1615.31,1565.75,1615.31,1565.75Z" transform="translate(-663.18 -638.96)"/></g></g></g><g id="Layer_301" data-name="Layer 301"><g id="Layer_180" data-name="Layer 180"><g id="Layer_59" data-name="Layer 59"><g class="cls-3"><path class="cls-2" d="M2503.29,1377.49S2534,1488,2680.2,1514.76c0,0-36.72,97.09-230.18,83.53C2450,1598.29,2504.16,1417.31,2503.29,1377.49Z" transform="translate(-663.18 -638.96)"/></g></g></g></g><g id="Layer_300" data-name="Layer 300"><g id="Layer_179" data-name="Layer 179"><g id="Layer_58" data-name="Layer 58"><g class="cls-3"><path class="cls-2" d="M1588.82,1402.19s-114.9,71.8-232.66,5.64c0,0,28.4,193,259.15,157.92C1615.31,1565.75,1586.66,1447.91,1588.82,1402.19Z" transform="translate(-663.18 -638.96)"/></g></g></g></g><g id="Layer_299" data-name="Layer 299"><g id="Layer_178" data-name="Layer 178"><g id="Layer_57" data-name="Layer 57"><path class="cls-2" d="M2509.85,1202a16.21,16.21,0,0,1-16.12-14.8c-.22-2.48-23.68-249.11-193.07-326.06-82.27-37.38-321.38-86-495.9,13-102.33,58.06-162,156.89-177.45,293.74a16.21,16.21,0,1,1-32.21-3.63c16.65-147.74,81.8-254.83,193.66-318.3,168.94-95.85,413.32-65.23,525.31-14.35,186.76,84.85,211,341.87,211.95,352.78a16.2,16.2,0,0,1-14.75,17.53C2510.8,1202,2510.32,1202,2509.85,1202Z" transform="translate(-663.18 -638.96)"/></g></g></g><g id="Layer_298" data-name="Layer 298"><g id="Layer_177" data-name="Layer 177"><g id="Layer_56" data-name="Layer 56"><path class="cls-2" d="M2596.89,1215.45a16.22,16.22,0,0,1-16-14c-.43-3.18-45.87-318.5-276.12-421.94-97.53-43.82-373.22-78-568.49,41.72-119.08,73-183.35,189.29-191,345.7a16.2,16.2,0,0,1-32.37-1.58c8.22-167.76,77.68-292.84,206.45-371.75,112.13-68.72,242.37-85.05,331.89-86.65,101.56-1.73,203.76,14.66,266.81,43,246.83,110.89,293.11,433.48,295,447.16a16.22,16.22,0,0,1-13.88,18.23A18.31,18.31,0,0,1,2596.89,1215.45Z" transform="translate(-663.18 -638.96)"/></g></g></g><g id="Layer_297" data-name="Layer 297"><g id="Layer_176" data-name="Layer 176"><g id="Layer_55" data-name="Layer 55"><path class="cls-2" d="M1834.07,1893.27a16.21,16.21,0,0,1-16.09-18.14c8.46-70.5,28-114.74,28.86-116.59a16.2,16.2,0,0,1,29.58,13.23c-.19.43-11.33,25.86-19.93,68,33.77-23.91,87.72-57.44,133.65-64.89a16.2,16.2,0,0,1,5.19,32c-62.84,10.18-150,82-150.92,82.67A16.22,16.22,0,0,1,1834.07,1893.27Z" transform="translate(-663.18 -638.96)"/></g></g></g><g id="Layer_296" data-name="Layer 296"><g id="Layer_175" data-name="Layer 175"><g id="Layer_54" data-name="Layer 54"><path class="cls-2" d="M2219.2,1893.27a16.24,16.24,0,0,1-10.34-3.73c-.87-.72-88.08-72.49-150.91-82.67a16.2,16.2,0,0,1,5.18-32c46.52,7.54,101.26,41.85,134.93,65.81-6.43-44.71-12.27-71.74-12.35-72.07a16.2,16.2,0,1,1,31.66-6.91c.39,1.78,9.66,44.58,17.92,113.42a16.21,16.21,0,0,1-16.09,18.14Z" transform="translate(-663.18 -638.96)"/></g></g></g><g id="Layer_295" data-name="Layer 295"><g id="Layer_174" data-name="Layer 174"><g id="Layer_53" data-name="Layer 53"><path class="cls-6" d="M1485.73,2156.06l59.2-56.19s108.2,6.43,153.35,127.79l-54.87,34.27S1622.39,2148.47,1485.73,2156.06Z" transform="translate(-663.18 -638.96)"/></g></g></g><g id="Layer_294" data-name="Layer 294"><g id="Layer_173" data-name="Layer 173"><g id="Layer_52" data-name="Layer 52"><g class="cls-3"><path class="cls-2" d="M1617.87,2203s23.62-2.48,54.18-33l26.23,47.83s-9.89,36.54-54.87,44.16C1643.41,2261.93,1647,2218.55,1617.87,2203Z" transform="translate(-663.18 -638.96)"/></g></g></g></g><g id="Layer_293" data-name="Layer 293"><g id="Layer_172" data-name="Layer 172"><g id="Layer_51" data-name="Layer 51"><g class="cls-16"><path class="cls-9" d="M1485.73,2156.06l48.54-1s23.27-.5,54.15-39a112.63,112.63,0,0,0-41-10.62A334.29,334.29,0,0,1,1485.73,2156.06Z" transform="translate(-663.18 -638.96)"/></g></g></g></g><g id="Layer_292" data-name="Layer 292"><g id="Layer_171" data-name="Layer 171"><g id="Layer_50" data-name="Layer 50"><path class="cls-2" d="M2012.69,1871.49c-65.65,0-108.9-32.69-111.58-34.77a16.2,16.2,0,0,1,19.83-25.63c3.55,2.7,83.63,62,190.3-1.12a16.21,16.21,0,0,1,16.51,27.89C2085.2,1863.05,2046.05,1871.49,2012.69,1871.49Z" transform="translate(-663.18 -638.96)"/></g></g></g><g id="Layer_291" data-name="Layer 291"><g id="Layer_170" data-name="Layer 170"><g id="Layer_49" data-name="Layer 49"><path class="cls-2" d="M1465.7,2150a16.21,16.21,0,0,1-5.07-31.6c.56-.18,56-18.64,88.94-46.59l8.79-7.39c31.87-26.74,52.93-44.4,69.76-92.49,63.27-180.78,189.09-232.37,194.42-234.48a16.21,16.21,0,0,1,12,30.12h0c-1.18.47-117.69,49-175.8,215.06-19.77,56.5-46.14,78.61-79.52,106.62q-4.23,3.54-8.67,7.29c-37.86,32.09-97.25,51.82-99.76,52.65A16.26,16.26,0,0,1,1465.7,2150Z" transform="translate(-663.18 -638.96)"/></g></g></g><g id="Layer_290" data-name="Layer 290"><g id="Layer_169" data-name="Layer 169"><g id="Layer_48" data-name="Layer 48"><path class="cls-2" d="M2509.88,2270.12a16.2,16.2,0,0,1-14.89-9.79c-.46-1.07-46.59-108.82-92.84-270-43.83-152.75-187.68-213.65-189.13-214.25a16.21,16.21,0,1,1,12.37-30c6.49,2.69,159.81,67.63,207.92,235.27,45.63,159,91,265.06,91.45,266.11a16.21,16.21,0,0,1-14.88,22.61Z" transform="translate(-663.18 -638.96)"/></g></g></g><g id="Layer_289" data-name="Layer 289"><g id="Layer_168" data-name="Layer 168"><g id="Layer_47" data-name="Layer 47"><path class="cls-11" d="M1379.09,2241.12s-22.76,73-11.28,115.89h223.47s58.58-101.28,0-147.69C1464.66,2109,1379.09,2241.12,1379.09,2241.12Z" transform="translate(-663.18 -638.96)"/><g class="cls-3"><path class="cls-2" d="M1617.31,2331.91S1470.7,2275,1367.81,2357c0,0-31.06-194.39,146.43-197.39C1629.67,2157.67,1617.31,2331.91,1617.31,2331.91Z" transform="translate(-663.18 -638.96)"/></g><path class="cls-2" d="M1470.61,2390.35c-41.47,0-79.89-6.14-109.07-18.39a16.21,16.21,0,0,1-9.93-14.95c0-43,11-115.28,11.47-118.34a16,16,0,0,1,2.41-6.35c1.69-2.61,42.06-63.85,110.24-75.07,41.72-6.86,84,6.39,125.61,39.37,68.76,54.48,6.64,163.88,4,168.51a16.26,16.26,0,0,1-9.5,7.45A456.57,456.57,0,0,1,1470.61,2390.35Zm-86.36-44.45c50.07,16.81,127.74,15.9,196-2.61,10.2-20.19,41-89.57,1-121.27-34.09-27-67.7-38.07-100-32.82-46.81,7.58-78.79,47.36-86.66,58.1C1392.54,2261.12,1385.6,2310.49,1384.25,2345.9Z" transform="translate(-663.18 -638.96)"/><path class="cls-2" d="M1475,2386.28a12.16,12.16,0,0,1-11.28-7.62c-15.65-38.94-1.08-93.72-.45-96a12.15,12.15,0,0,1,23.46,6.36h0c-.13.49-13,49.29-.46,80.61a12.16,12.16,0,0,1-11.27,16.69Z" transform="translate(-663.18 -638.96)"/></g></g></g><g id="Layer_288" data-name="Layer 288"><g id="Layer_167" data-name="Layer 167"><g id="Layer_46" data-name="Layer 46"><path class="cls-2" d="M1621.74,2284.59a16.2,16.2,0,0,1-4-31.89c3.46-.91,80.63-22.16,108.5-105.78a16.2,16.2,0,1,1,30.74,10.24c-33.62,100.89-127.19,125.91-131.16,126.92A16,16,0,0,1,1621.74,2284.59Z" transform="translate(-663.18 -638.96)"/></g></g></g><g id="Layer_287" data-name="Layer 287"><g id="Layer_166" data-name="Layer 166"><g id="Layer_45" data-name="Layer 45"><path class="cls-6" d="M1448.84,2142.81s107.73-31.94,154.6,14.93,43.31,85.65,18.31,110.64-77.41-29-77.41-29-98.92,103.57-153.67,48.82S1421.09,2170.56,1448.84,2142.81Z" transform="translate(-663.18 -638.96)"/></g></g></g><g id="Layer_286" data-name="Layer 286"><g id="Layer_165" data-name="Layer 165"><g id="Layer_44" data-name="Layer 44"><g class="cls-16"><path class="cls-9" d="M1621,2205.77s-83.16-96.28-240,12.41c0,0,55.76-108.61,152.68-95C1624.62,2136,1621,2205.77,1621,2205.77Z" transform="translate(-663.18 -638.96)"/></g></g></g></g><g id="Layer_285" data-name="Layer 285"><g id="Layer_164" data-name="Layer 164"><g id="Layer_43" data-name="Layer 43"><path class="cls-2" d="M1438.31,2324.09c-29,0-56.47-12.87-82-38.34a16.2,16.2,0,0,1-4.45-14.52c.76-3.95,19.33-97.18,86.36-139.16,33-20.65,71.51-25.27,114.51-13.71,68.35,18.35,98.38,80.2,91.93,129.08-3.7,28.08-19.8,46.22-41,46.22-27.74,0-46-15.52-57-29.83-19,22.15-54.14,55.08-97.9,59.71A99.85,99.85,0,0,1,1438.31,2324.09Zm-52.56-55.16c19.41,17.2,39,24.55,59.54,22.39,49.92-5.2,89.3-64.74,89.69-65.35a16.21,16.21,0,0,1,28.81,3.3c.47,1.23,12.36,32,39.89,32,2.73,0,7.34-6.27,8.89-18.05,3.71-28.09-11.53-78.33-68.2-93.54-33.93-9.11-63.79-5.8-88.79,9.81C1411,2187.31,1391.59,2246.88,1385.75,2268.93Z" transform="translate(-663.18 -638.96)"/></g></g></g><g id="Layer_284" data-name="Layer 284"><g id="Layer_163" data-name="Layer 163"><g id="Layer_42" data-name="Layer 42"><path class="cls-2" d="M748.25,3535.93H679.38a16.21,16.21,0,0,1-16.13-17.75l93.17-976.29a16.2,16.2,0,1,1,32.26,3.08l-91.47,958.54h37.42l167.8-962.86a16.2,16.2,0,1,1,31.92,5.56L764.21,3522.5A16.2,16.2,0,0,1,748.25,3535.93Z" transform="translate(-663.18 -638.96)"/></g></g></g><g id="Layer_354" data-name="Layer 354"><g id="Layer_233" data-name="Layer 233"><g id="Layer_112" data-name="Layer 112"><polygon class="cls-1" points="85.07 1904.47 2621 1904.47 2621 1819.4 2276.66 1574.42 417.25 1574.42 85.07 1819.4 85.07 1904.47"/></g></g></g><g id="Layer_353" data-name="Layer 353"><g id="Layer_232" data-name="Layer 232"><g id="Layer_111" data-name="Layer 111"><g class="cls-3"><path class="cls-2" d="M1367.81,2357s48,73.28,186.19,44.73c42.87-8.85,78.25-40.1,90.86-82,5.48-18.21,7.71-38.84,2.56-60.28l-25.67,8.94s-12,81.49-29.74,87.33S1446.57,2393.4,1367.81,2357Z" transform="translate(-663.18 -638.96)"/></g></g></g></g><g id="Layer_352" data-name="Layer 352"><g id="Layer_231" data-name="Layer 231"><g id="Layer_110" data-name="Layer 110"><g class="cls-3"><polygon class="cls-2" points="417.25 1574.42 2160.81 1819.4 2610.06 1811.62 2276.66 1574.42 417.25 1574.42"/></g></g></g></g><g id="Layer_351" data-name="Layer 351"><g id="Layer_230" data-name="Layer 230"><g id="Layer_109" data-name="Layer 109"><g class="cls-3"><polygon class="cls-2" points="2064.17 1819.4 871.09 1909.32 2621 1904.47 2621 1819.4 2064.17 1819.4"/></g></g></g></g><g id="Layer_350" data-name="Layer 350"><g id="Layer_229" data-name="Layer 229"><g id="Layer_108" data-name="Layer 108"><polygon class="cls-1" points="108.91 1909.32 16.2 2880.76 85.07 2880.76 253.86 1905.82 108.91 1909.32"/></g></g></g><g id="Layer_349" data-name="Layer 349"><g id="Layer_228" data-name="Layer 228"><g id="Layer_107" data-name="Layer 107"><polygon class="cls-1" points="426.71 1904.47 369.62 2536.21 414.18 2536.21 524.28 1904.47 426.71 1904.47"/></g></g></g><g id="Layer_348" data-name="Layer 348"><g id="Layer_227" data-name="Layer 227"><g id="Layer_106" data-name="Layer 106"><polygon class="cls-1" points="2154.32 1904.47 2264.41 2536.21 2308.98 2536.21 2246.96 1904.47 2154.32 1904.47"/></g></g></g><g id="Layer_347" data-name="Layer 347"><g id="Layer_226" data-name="Layer 226"><g id="Layer_105" data-name="Layer 105"><g class="cls-3"><polygon class="cls-2" points="426.71 1904.47 369.62 2536.21 414.18 2536.21 524.28 1904.47 426.71 1904.47"/></g></g></g></g><g id="Layer_346" data-name="Layer 346"><g id="Layer_225" data-name="Layer 225"><g id="Layer_104" data-name="Layer 104"><g class="cls-3"><polygon class="cls-2" points="2154.32 1904.47 2264.41 2536.21 2308.98 2536.21 2246.96 1904.47 2154.32 1904.47"/></g></g></g></g><g id="Layer_345" data-name="Layer 345"><g id="Layer_224" data-name="Layer 224"><g id="Layer_103" data-name="Layer 103"><polygon class="cls-1" points="2420.74 1904.47 2590.88 2880.76 2659.75 2880.76 2568.48 1904.47 2420.74 1904.47"/></g></g></g><g id="Layer_344" data-name="Layer 344"><g id="Layer_223" data-name="Layer 223"><g id="Layer_102" data-name="Layer 102"><path class="cls-11" d="M1854.22,1755.72l-26.08,121.35,207-90.75S1900.53,1774.25,1854.22,1755.72Z" transform="translate(-663.18 -638.96)"/></g></g></g><g id="Layer_343" data-name="Layer 343"><g id="Layer_222" data-name="Layer 222"><g id="Layer_101" data-name="Layer 101"><path class="cls-11" d="M2084.21,1787.69s111.88,66.73,132.49,87.34l-15.1-109.87S2111.36,1789.62,2084.21,1787.69Z" transform="translate(-663.18 -638.96)"/></g></g></g><g id="Layer_342" data-name="Layer 342"><g id="Layer_221" data-name="Layer 221"><g id="Layer_100" data-name="Layer 100"><path class="cls-11" d="M1911.05,1821.12s84.33,67.61,217.62-4.73c0,0-45-31.45-93.57-30.07l-48.61,1.37S1911.05,1801.52,1911.05,1821.12Z" transform="translate(-663.18 -638.96)"/></g></g></g><g id="Layer_341" data-name="Layer 341"><g id="Layer_220" data-name="Layer 220"><g id="Layer_99" data-name="Layer 99"><path class="cls-18" d="M1607.7,1163.3h-82.41s2.32-282.44,275-392.32,537.38-15.47,622.46,69.61,158.69,276,173.16,352.05l-88-6.82s-5.6-292.92-279.71-365.61S1772.11,866.73,1711,927.82,1607.7,1163.3,1607.7,1163.3Z" transform="translate(-663.18 -638.96)"/></g></g></g><g id="Layer_340" data-name="Layer 340"><g id="Layer_219" data-name="Layer 219"><g id="Layer_98" data-name="Layer 98"><path class="cls-11" d="M1544.93,2099.87l29.44-29.79s86,15.26,115.62,44.89,35.81,76.18,35.81,76.18l-27.52,36.51S1659.91,2105.57,1544.93,2099.87Z" transform="translate(-663.18 -638.96)"/></g></g></g><g id="Layer_339" data-name="Layer 339"><g id="Layer_218" data-name="Layer 218"><g id="Layer_97" data-name="Layer 97"><path class="cls-11" d="M2265.92,3255.26c-114.65,59.24-132.23-56.92-132.23-56.92s48.69-99.12,163.79-76.56C2297.48,3121.78,2333.7,3219.79,2265.92,3255.26Z" transform="translate(-663.18 -638.96)"/></g></g></g><g id="Layer_338" data-name="Layer 338"><g id="Layer_217" data-name="Layer 217"><g id="Layer_96" data-name="Layer 96"><path class="cls-11" d="M1870.73,3095.38S1987.86,3041.7,2023,3089c0,0,3.5,73.23-57.78,95.57C1886.58,3213.2,1870.73,3095.38,1870.73,3095.38Z" transform="translate(-663.18 -638.96)"/></g></g></g><g id="Layer_337" data-name="Layer 337"><g id="Layer_216" data-name="Layer 216"><g id="Layer_95" data-name="Layer 95"><g class="cls-19"><ellipse class="cls-20" cx="1079.54" cy="813.61" rx="89.28" ry="58.42"/></g></g></g></g><g id="Layer_336" data-name="Layer 336"><g id="Layer_215" data-name="Layer 215"><g id="Layer_94" data-name="Layer 94"><g class="cls-19"><ellipse class="cls-20" cx="1700.37" cy="813.61" rx="89.28" ry="58.42"/></g></g></g></g><g id="Layer_335" data-name="Layer 335"><g id="Layer_214" data-name="Layer 214"><g id="Layer_93" data-name="Layer 93"><g class="cls-3"><path class="cls-2" d="M1647.42,1125.08s31.27-212.41,266-268S2304,867,2340.28,903.22c0,0,158.8,183.73,171.56,324.59l6.13-54.14c7.54,4.52,7.3,7.5,15.35,10.3,4.48-63-12.41-132.44-38.76-188.6-36.2-77.16-96.69-141-173-179.53-75.63-38.25-164-51.14-247.89-53.83-95.49-3.07-207.53,8.53-290.81,57.72a397.67,397.67,0,0,0-195.05,324c-.24,5.17-.48,10.36-.41,15.55l23.78,2.81Z" transform="translate(-663.18 -638.96)"/></g></g></g></g><g id="Layer_334" data-name="Layer 334"><g id="Layer_213" data-name="Layer 213"><g id="Layer_92" data-name="Layer 92"><g class="cls-3"><path class="cls-2" d="M1806.38,1766.85s217.78,103.37,487.24,40L2222,1751.67s-211.73,60.94-410.33,0Z" transform="translate(-663.18 -638.96)"/></g></g></g></g><g id="Layer_333" data-name="Layer 333"><g id="Layer_212" data-name="Layer 212"><g id="Layer_91" data-name="Layer 91"><g class="cls-3"><path class="cls-2" d="M1758.23,2746.25s104,7.83,102.33,79.74l1.16-.44c3-22.33,4.19-45,4.81-67.69-54.38-58.78-93.12-132.24-113.5-209.58Z" transform="translate(-663.18 -638.96)"/></g></g></g></g><g id="Layer_332" data-name="Layer 332"><g id="Layer_211" data-name="Layer 211"><g id="Layer_90" data-name="Layer 90"><g class="cls-3"><path class="cls-2" d="M2374.47,2551.37c-54.57,78.89-119.25,137.9-230.53,118.51-4.32-.76-8.69,1.11-13.1,4.06,19.31,31.5,26.18,74.49,42.28,108.47,10.62-3.11,133.71-40.86,214.42-137.7v-93.18Z" transform="translate(-663.18 -638.96)"/></g></g></g></g><g id="Layer_331" data-name="Layer 331"><g id="Layer_210" data-name="Layer 210"><g id="Layer_89" data-name="Layer 89"><g class="cls-3"><path class="cls-2" d="M1681,2099.87s9,35.73-30.42,51.29l47.73,66.61,27.52-35.07Z" transform="translate(-663.18 -638.96)"/></g></g></g></g><g id="Layer_330" data-name="Layer 330"><g id="Layer_209" data-name="Layer 209"><g id="Layer_88" data-name="Layer 88"><g class="cls-3"><path class="cls-2" d="M2457.85,1230.31s-4.91,272.31-69.33,361.65c-59.05,81.88-234.93,176.91-475.12,176.91,0,0,257.37,86.59,501.26-129.67,0,0,99.45-135,86.81-395.27Z" transform="translate(-663.18 -638.96)"/></g></g></g></g><g id="Layer_329" data-name="Layer 329"><g id="Layer_208" data-name="Layer 208"><g id="Layer_87" data-name="Layer 87"><g class="cls-3"><polygon class="cls-2" points="2431.59 1966.74 2572.53 1966.74 2568.48 1904.47 2410.35 1904.47 2431.59 1966.74"/></g></g></g></g><g id="Layer_328" data-name="Layer 328"><g id="Layer_207" data-name="Layer 207"><g id="Layer_86" data-name="Layer 86"><g class="cls-3"><polygon class="cls-2" points="103.92 1961.63 245.25 1961.63 255.21 1904.47 109.37 1904.47 103.92 1961.63"/></g></g></g></g><g id="Layer_327" data-name="Layer 327"><g id="Layer_206" data-name="Layer 206"><g id="Layer_85" data-name="Layer 85"><g class="cls-3"><path class="cls-2" d="M1655,1129.29s-51.42,212.77-45.26,417c0,0-73.59-197.72,1.48-384.27C1611.22,1162.06,1609.08,1131.17,1655,1129.29Z" transform="translate(-663.18 -638.96)"/></g></g></g></g><g id="Layer_326" data-name="Layer 326"><g id="Layer_205" data-name="Layer 205"><g id="Layer_84" data-name="Layer 84"><g class="cls-3"><path class="cls-2" d="M1913.4,1039.26s72.46-37.89,113.69-44.58c76.2-12.37,86.56,62.87,201.77,22.29s108.69-101.65,108.69-101.65-42.66,73.36-153.65,73.36-95.27-48.23-156.81-31.61S1913.4,1039.26,1913.4,1039.26Z" transform="translate(-663.18 -638.96)"/></g></g></g></g><g id="Layer_325" data-name="Layer 325"><g id="Layer_204" data-name="Layer 204"><g id="Layer_83" data-name="Layer 83"><g class="cls-3"><path class="cls-2" d="M2136.84,3235.26s154.44-7.74,168.82-78.37c0,0,30.21,67.11-34.28,101.94C2176.48,3310.09,2136.84,3235.26,2136.84,3235.26Z" transform="translate(-663.18 -638.96)"/></g></g></g></g><g id="Layer_324" data-name="Layer 324"><g id="Layer_203" data-name="Layer 203"><g id="Layer_82" data-name="Layer 82"><g class="cls-3"><path class="cls-2" d="M1890.63,2936.38s63.89,37.5,131.71,105.32l-6.13-117.48S1959.5,2960.68,1890.63,2936.38Z" transform="translate(-663.18 -638.96)"/></g></g></g></g><g id="Layer_323" data-name="Layer 323"><g id="Layer_202" data-name="Layer 202"><g id="Layer_81" data-name="Layer 81"><g class="cls-16"><path class="cls-9" d="M1818.67,1744.71s-82.45,84.33-112.4,125.3-103.72,158.56-122.63,191.49c-6.11,10.64-22,29-36.26,44a112.63,112.63,0,0,1,41,10.62c21-26.2,61.59-58.32,81.41-108.62,48.92-124.1,152.14-234,152.14-234l32.25-21.83Z" transform="translate(-663.18 -638.96)"/></g></g></g></g><g id="Layer_322" data-name="Layer 322"><g id="Layer_201" data-name="Layer 201"><g id="Layer_80" data-name="Layer 80"><g class="cls-16"><path class="cls-9" d="M2337.62,761.55s-76.91-99.21-197.75-39.34c0,0-159.42-10.76-238.57,12.78s-108.22-10.43-180,40.2-110.12,128-110.12,128,5.53-100.83,46.36-141.67,143.35-51.39,187.22-70.53,122.69-43,220-17.91c0,0,147.43-44.18,214.54,5.46s78.9,55.28,89.28,89.44Z" transform="translate(-663.18 -638.96)"/></g></g></g></g><g id="Layer_321" data-name="Layer 321"><g id="Layer_200" data-name="Layer 200"><g id="Layer_79" data-name="Layer 79"><g class="cls-16"><path class="cls-9" d="M1472.5,1551.32s103.43,119.78,77.51,193.39-129.91,128.73-121.38,189.06c12.31,87.11,75.73,75.42,68.72,160.82s-28,80.1-28,80.1l-61.09,37.92s52-85.85,32.73-122.87-82.07-106.26-59.18-170.23S1487,1788.49,1487,1735.1s-19.3-97.14-41.65-119.49-4.45-80.5-4.45-80.5Z" transform="translate(-663.18 -638.96)"/></g></g></g></g><g id="Layer_320" data-name="Layer 320"><g id="Layer_199" data-name="Layer 199"><g id="Layer_78" data-name="Layer 78"><g class="cls-16"><path class="cls-9" d="M2643.21,1675s-7.41,81.63-33.64,144.91-24.44,182,16.82,223.29-34.21,210.76-34.21,210.76l62.13.51S2714.66,2091,2690.76,2052s-85.14-79.69-75-142.48S2690.94,1755.56,2643.21,1675Z" transform="translate(-663.18 -638.96)"/></g></g></g></g><g id="Layer_319" data-name="Layer 319"><g id="Layer_198" data-name="Layer 198"><g id="Layer_77" data-name="Layer 77"><g class="cls-16"><path class="cls-9" d="M2151.92,2458.36,1020.42,2499a821,821,0,0,0-136.74,16.47l-135.43,28v-85.07l332.18-245h29.7l-236.3,194.34Z" transform="translate(-663.18 -638.96)"/></g></g></g></g><g id="Layer_318" data-name="Layer 318"><g id="Layer_197" data-name="Layer 197"><g id="Layer_76" data-name="Layer 76"><g class="cls-16"><polygon class="cls-9" points="103.92 1974.35 74.94 2880.76 13.89 2883.08 103.92 1974.35"/></g></g></g></g></svg>